<svg width="623" height="638" viewBox="0 0 623 638" fill="none" xmlns="http://www.w3.org/2000/svg">
<path d="M454.58 402.84C454.58 402.84 376.04 517.13 239.03 441.16C239.03 441.16 293.69 339.1 368.62 267.2L357.76 254.34L357.65 254.43C353.95 257.42 234.18 355.52 169.12 516.64L132 505.83C132 505.83 137.1 482.92 191.89 401.81C81.05 210.01 292.44 164.95 292.44 164.95C292.44 164.95 438.59 145.34 470.8 122C470.8 122 470.83 122.12 470.89 122.42C473.6 131.9 519.24 298.15 454.58 402.84Z" fill="url(#paint0_linear_1512_104)"/>
<path d="M470.891 122.41C473.601 131.9 519.241 298.15 454.581 402.84C454.581 402.84 376.041 517.13 239.031 441.16C239.031 441.16 293.691 339.1 368.621 267.2L368.151 267.03C368.151 267.03 457.901 188.39 470.891 122.41Z" fill="url(#paint1_linear_1512_104)"/>
<path d="M622.415 219.941C589.795 142.351 536.326 84.7013 459.146 50.0413C398.426 22.7713 334.886 16.4313 270.356 30.7613C132.116 61.4613 39.6755 175.541 28.8255 305.351C22.0255 386.671 43.8455 460.371 95.4255 524.221C146.665 587.651 213.606 624.151 293.756 637.431C243.026 634.671 196.176 619.531 153.215 592.841C79.9055 547.291 30.8755 482.821 10.0455 399.061C-35.8645 214.521 81.3255 47.4013 244.736 9.05131C430.656 -34.5987 583.385 86.7713 622.415 219.941Z" fill="#06B6D4"/>
<path d="M358.744 54.0625C459.994 56.8625 594.444 138.672 615.284 297.302C636.114 455.932 525.084 592.472 374.744 613.512C218.134 635.432 99.2738 528.012 70.0938 426.942C104.464 503.522 160.294 556.772 240.574 582.652C296.634 600.722 353.104 599.662 408.634 580.682C521.234 542.193 592.874 438.672 593.154 323.962C593.314 256.342 571.094 196.062 526.194 145.042C481.624 94.4025 425.354 64.6825 358.744 54.0625Z" fill="#F59E0B"/>
<defs>
<linearGradient id="paint0_linear_1512_104" x1="310.524" y1="122" x2="310.524" y2="516.64" gradientUnits="userSpaceOnUse">
<stop stop-color="#06B6D4"/>
<stop offset="1" stop-color="#F59E0B"/>
</linearGradient>
<linearGradient id="paint1_linear_1512_104" x1="364.04" y1="122.41" x2="364.04" y2="467.223" gradientUnits="userSpaceOnUse">
<stop stop-color="#06B6D4"/>
<stop offset="1" stop-color="#F59E0B"/>
</linearGradient>
</defs>
</svg>
